<?xml version="1.0" encoding="UTF-8" standalone="no"?>
<!DOCTYPE svg PUBLIC "-//W3C//DTD SVG 1.1//EN"
 "http://www.w3.org/Graphics/SVG/1.1/DTD/svg11.dtd">
<!-- Generated by graphviz version 2.43.0 (0)
 -->
<!-- Title: %3 Pages: 1 -->
<svg width="1318pt" height="62pt"
 viewBox="0.00 0.00 1317.94 61.74" xmlns="http://www.w3.org/2000/svg" xmlns:xlink="http://www.w3.org/1999/xlink">
<g id="graph0" class="graph" transform="scale(1 1) rotate(0) translate(4 57.74)">
<title>%3</title>
<polygon fill="white" stroke="transparent" points="-4,4 -4,-57.74 1313.94,-57.74 1313.94,4 -4,4"/>
<!-- Events -->
<g id="node1" class="node">
<title>Events</title>
<ellipse fill="none" stroke="black" cx="159.1" cy="-26.87" rx="159.2" ry="26.74"/>
<text text-anchor="middle" x="159.1" y="-30.67" font-family="Times,serif" font-size="14.00">raw_events</text>
<text text-anchor="middle" x="159.1" y="-15.67" font-family="Times,serif" font-size="14.00">[user_id, feature, timestamp]</text>
</g>
<!-- FeatureHourly -->
<g id="node2" class="node">
<title>FeatureHourly</title>
<ellipse fill="none" stroke="black" cx="640.21" cy="-26.87" rx="210.02" ry="26.74"/>
<text text-anchor="middle" x="640.21" y="-30.67" font-family="Times,serif" font-size="14.00">feature_usage_hourly</text>
<text text-anchor="middle" x="640.21" y="-15.67" font-family="Times,serif" font-size="14.00">[user_id, feature, window, event_count]</text>
</g>
<!-- Events&#45;&gt;FeatureHourly -->
<g id="edge1" class="edge">
<title>Events&#45;&gt;FeatureHourly</title>
<path fill="none" stroke="black" d="M318.31,-26.87C350.8,-26.87 385.57,-26.87 419.78,-26.87"/>
<polygon fill="black" stroke="black" points="419.89,-30.37 429.89,-26.87 419.89,-23.37 419.89,-30.37"/>
<text text-anchor="middle" x="374.2" y="-30.67" font-family="Times,serif" font-size="14.00">Spark ETL</text>
</g>
<!-- FeatureEvents -->
<g id="node3" class="node">
<title>FeatureEvents</title>
<ellipse fill="none" stroke="black" cx="1134.58" cy="-26.87" rx="175.23" ry="26.74"/>
<text text-anchor="middle" x="1134.58" y="-30.67" font-family="Times,serif" font-size="14.00">feature_events (dbt)</text>
<text text-anchor="middle" x="1134.58" y="-15.67" font-family="Times,serif" font-size="14.00">[user_id, feature, hourly_events]</text>
</g>
<!-- FeatureHourly&#45;&gt;FeatureEvents -->
<g id="edge2" class="edge">
<title>FeatureHourly&#45;&gt;FeatureEvents</title>
<path fill="none" stroke="black" d="M850.38,-26.87C882.99,-26.87 916.49,-26.87 948.52,-26.87"/>
<polygon fill="black" stroke="black" points="948.87,-30.37 958.87,-26.87 948.87,-23.37 948.87,-30.37"/>
<text text-anchor="middle" x="904.72" y="-30.67" font-family="Times,serif" font-size="14.00">dbt model</text>
</g>
</g>
</svg>
